:SAMPLES-PER-SECOND 30
:FULLY-SPECIFIED
:DEGREES
207
root  -63.3753 39.8215 2.70759 -11.1629 -83.5609 13.1707
RightUpLeg  -20.7613 -0.855414 -6.19973
RightLeg  11.8052 18.7086 1.16192
RightFoot  7.1761 -0.909832 5.87924
RightToes  2.96859e-009 0 -3.6325e-017
Spine  26.2494 -2.34242 5.08953
Spine1  6.29065 0.19624 -6.64814
HEad  -16.8368 -2.79616 -2.76709
LeftShoulder1  1.21627 -4.73734 -7.16556
LeftArm  -46.5325 -72.6582 -19.5589
LeftForeArm  -20.4316 -20.3621 -4.16
LeftHand  -0.243669 9.11001 -5.74099
RightShoulder  0.328851 1.12551 -1.54308
RightArm  -47.098 64.0326 9.3686
RightForeArm  -46.9075 12.5501 -0.834596
RightHand  0.100417 0.188854 2.15513
LeftUpLeg  -22.0998 -0.0410646 1.73212
LeftLeg  20.2115 -9.74788 -3.62865
LeftFoot  4.6397 0.111242 -0.991824
LeftToes  3.24686e-010 -7.02549e-012 1.39809e-011
208
root  -63.5418 39.9115 2.3483 -12.235 -83.037 14.0197
RightUpLeg  -20.1398 -1.12369 -5.82368
RightLeg  11.7203 18.3936 1.07631
RightFoot  7.07034 -0.775244 5.07844
RightToes  2.96859e-009 0 -3.6325e-017
Spine  25.5147 -2.18944 4.54948
Spine1  6.65844 0.0309426 -5.90611
HEad  -15.2911 -1.31627 -3.89516
LeftShoulder1  1.25053 -4.20886 -8.7656
LeftArm  -43.0888 -72.4054 -20.5385
LeftForeArm  -22.3991 -20.5666 -4.54157
LeftHand  -0.259999 9.45715 -5.65323
RightShoulder  0.347801 1.17559 -1.15242
RightArm  -45.4439 63.5651 12.2793
RightForeArm  -49.3382 14.9269 0.66238
RightHand  -0.0150923 0.635484 -0.3954
LeftUpLeg  -21.5017 -0.413161 2.17389
LeftLeg  19.731 -10.1849 -3.70603
LeftFoot  5.24617 0.271121 -2.08051
LeftToes  3.24686e-010 -7.02549e-012 1.39809e-011
209
root  -63.6816 39.9447 1.97404 -11.7491 -82.0259 13.1029
RightUpLeg  -19.6299 -1.69329 -5.49728
RightLeg  12.3916 17.8288 1.39031
RightFoot  6.65554 -0.589363 4.00669
RightToes  2.96859e-009 0 -3.6325e-017
Spine  24.5778 -2.24194 4.44345
Spine1  7.30057 -0.205507 -5.49859
HEad  -13.5935 0.409666 -4.78394
LeftShoulder1  1.24556 -4.10208 -8.95667
LeftArm  -40.8158 -70.9604 -23.2661
LeftForeArm  -21.5811 -21.8029 -5.26449
LeftHand  -0.22299 8.85322 -5.45815
RightShoulder  0.370191 0.920606 -0.0989871
RightArm  -46.6851 62.0963 15.0539
RightForeArm  -44.3286 18.5219 2.92848
RightHand  -0.0402295 0.372135 -0.857641
LeftUpLeg  -21.0654 -1.07599 2.68349
LeftLeg  19.7431 -10.7635 -3.93563
LeftFoot  5.56629 0.444939 -3.22195
LeftToes  3.24686e-010 -7.02549e-012 1.39809e-011
210
root  -63.7732 39.9425 1.56397 -11.4308 -80.8792 12.2847
RightUpLeg  -19.2834 -1.89696 -5.30781
RightLeg  13.3529 16.5063 1.79747
RightFoot  6.15208 -0.387001 2.78873
RightToes  2.96859e-009 0 -3.6325e-017
Spine  24.0434 -2.13674 4.18237
Spine1  7.39122 -0.371177 -4.7788
HEad  -12.1296 1.75519 -5.61752
LeftShoulder1  1.26275 -4.00598 -9.4424
LeftArm  -36.7106 -69.5985 -25.601
LeftForeArm  -22.4358 -22.9758 -5.81839
LeftHand  -0.125795 7.27837 -4.84871
RightShoulder  0.401076 0.982012 0.565939
RightArm  -47.4863 59.3836 17.5735
RightForeArm  -39.3528 22.2783 5.69086
RightHand  -0.0183494 0.0946214 -0.399349
LeftUpLeg  -20.7653 -2.13102 3.23289
LeftLeg  19.8672 -11.1066 -4.09836
LeftFoot  5.951 0.601145 -4.1915
LeftToes  3.24686e-010 -7.02549e-012 1.39809e-011
211
root  -63.8367 39.9377 1.10049 -11.6881 -79.5139 11.913
RightUpLeg  -18.8944 -2.6162 -5.14841
RightLeg  14.4106 15.5253 2.33043
RightFoot  5.6474 -0.252277 1.9486
RightToes  2.96859e-009 0 -3.6325e-017
Spine  23.574 -2.0083 3.82156
Spine1  7.62979 -0.531965 -4.04171
HEad  -11.3359 2.97252 -5.92539
LeftShoulder1  1.24079 -3.66935 -10.0009
LeftArm  -33.6263 -67.6863 -29.0315
LeftForeArm  -20.5714 -25.6363 -6.48961
LeftHand  -0.164263 7.57802 -6.07866
RightShoulder  0.447564 1.01179 1.66876
RightArm  -44.771 56.4803 18.7977
RightForeArm  -38.5613 26.6793 7.48109
RightHand  0.0444364 0.184153 0.905015
LeftUpLeg  -20.4598 -2.74365 3.6794
LeftLeg  20.0374 -12.1294 -4.54195
LeftFoot  6.51596 0.765045 -5.11935
LeftToes  3.24686e-010 -7.02549e-012 1.39809e-011
212
root  -63.8682 39.9438 0.610003 -10.5002 -77.2876 10.2903
RightUpLeg  -18.3786 -4.2278 -5.06159
RightLeg  14.9541 14.6203 2.87383
RightFoot  5.28675 -0.158298 1.33121
RightToes  2.96859e-009 0 -3.6325e-017
Spine  22.6874 -2.20508 3.46458
Spine1  8.3146 -1.03268 -3.25543
HEad  -11.1534 4.2106 -6.57255
LeftShoulder1  1.16298 -2.88802 -10.9682
LeftArm  -29.5324 -66.4971 -31.005
LeftForeArm  -20.9952 -28.2947 -7.14204
LeftHand  -0.141756 7.17936 -6.10349
RightShoulder  0.468619 0.897816 2.56802
RightArm  -41.1674 52.5364 21.503
RightForeArm  -38.4698 33.1512 9.13492
RightHand  0.0433852 -0.212443 1.01525
LeftUpLeg  -20.2802 -3.60121 4.09302
LeftLeg  19.5805 -13.5535 -4.98516
LeftFoot  7.3926 0.974839 -6.1793
LeftToes  3.24686e-010 -7.02549e-012 1.39809e-011
213
root  -63.8992 39.9941 0.100641 -11.1777 -74.4303 10.7983
RightUpLeg  -17.7171 -7.20686 -5.4734
RightLeg  14.946 14.5773 3.49455
RightFoot  5.00302 -0.0843443 0.825702
RightToes  2.96859e-009 0 -3.6325e-017
Spine  21.8581 -2.28878 3.12104
Spine1  8.47438 -1.3339 -2.8731
HEad  -11.543 4.53599 -7.02829
LeftShoulder1  1.17102 -2.78648 -11.4164
LeftArm  -24.6912 -64.5392 -34.1834
LeftForeArm  -21.9306 -31.7859 -8.097
LeftHand  -0.14695 7.26776 -6.10551
RightShoulder  0.491512 0.383677 4.75182
RightArm  -38.7846 47.5345 23.0887
RightForeArm  -36.1374 40.6783 11.4729
RightHand  0.0570623 -0.640095 1.48816
LeftUpLeg  -19.5783 -4.35538 3.76245
LeftLeg  17.438 -15.5216 -5.01312
LeftFoot  8.77903 1.19427 -7.02516
LeftToes  3.24686e-010 -7.02549e-012 1.39809e-011
